STARTFONT 2.3
FONT -FontForge-Permanent Marker-Book-R-Normal--8-80-72-72-P-47-ISO10646-1
SIZE 8 72 72  2
FONTBOUNDINGBOX 13 12 -3 -3
COMMENT "Generated by fontforge, http://fontforge.sourceforge.net"
COMMENT "Copyright (c) 2010 by Font Diner, Inc. All rights reserved."
STARTPROPERTIES 40
FOUNDRY "FontForge"
FAMILY_NAME "Permanent Marker"
WEIGHT_NAME "Book"
SLANT "R"
SETWIDTH_NAME "Normal"
ADD_STYLE_NAME ""
PIXEL_SIZE 8
POINT_SIZE 80
RESOLUTION_X 72
RESOLUTION_Y 72
SPACING "P"
AVERAGE_WIDTH 47
CHARSET_REGISTRY "ISO10646"
CHARSET_ENCODING "1"
FONTNAME_REGISTRY ""
CHARSET_COLLECTIONS "ISO10646-1"
BITS_PER_PIXEL 2
FONT_NAME "PermanentMarker-Regular"
FACE_NAME "Permanent Marker Regular"
COPYRIGHT "Copyright (c) 2010 by Font Diner, Inc. All rights reserved."
FONT_VERSION "1.001"
FONT_ASCENT 6
FONT_DESCENT 2
UNDERLINE_POSITION -1
UNDERLINE_THICKNESS 1
X_HEIGHT 4
CAP_HEIGHT 5
RAW_ASCENT 799
RAW_DESCENT 200
NORM_SPACE 3
RELATIVE_WEIGHT 40
RELATIVE_SETWIDTH 50
SUPERSCRIPT_X 0
SUPERSCRIPT_Y 3
SUPERSCRIPT_SIZE 5
SUBSCRIPT_X 0
SUBSCRIPT_Y 1
SUBSCRIPT_SIZE 5
AVG_LOWERCASE_WIDTH 46
AVG_UPPERCASE_WIDTH 55
ENDPROPERTIES
CHARS 230
STARTCHAR space
ENCODING 32
SWIDTH 370 0
DWIDTH 3 0
BBX 1 1 0 0
BITMAP
00
ENDCHAR
STARTCHAR exclam
ENCODING 33
SWIDTH 260 0
DWIDTH 2 0
BBX 2 6 0 0
BITMAP
20
30
70
60
00
D0
ENDCHAR
STARTCHAR quotedbl
ENCODING 34
SWIDTH 492 0
DWIDTH 4 0
BBX 4 4 0 2
BITMAP
26
37
7A
15
ENDCHAR
STARTCHAR numbersign
ENCODING 35
SWIDTH 703 0
DWIDTH 6 0
BBX 6 6 0 0
BITMAP
0440
1DC0
7FD0
6B80
BB40
6600
ENDCHAR
STARTCHAR dollar
ENCODING 36
SWIDTH 493 0
DWIDTH 4 0
BBX 4 6 0 0
BITMAP
04
1F
B9
18
6C
30
ENDCHAR
STARTCHAR percent
ENCODING 37
SWIDTH 643 0
DWIDTH 5 0
BBX 5 6 0 0
BITMAP
1440
79C0
6A00
1900
6780
9640
ENDCHAR
STARTCHAR ampersand
ENCODING 38
SWIDTH 599 0
DWIDTH 5 0
BBX 5 5 0 0
BITMAP
0400
5D00
FF40
6D00
1400
ENDCHAR
STARTCHAR quotesingle
ENCODING 39
SWIDTH 265 0
DWIDTH 2 0
BBX 3 4 0 2
BITMAP
24
34
70
10
ENDCHAR
STARTCHAR parenleft
ENCODING 40
SWIDTH 361 0
DWIDTH 3 0
BBX 4 9 0 -2
BITMAP
02
0E
38
70
A0
A0
A0
60
10
ENDCHAR
STARTCHAR parenright
ENCODING 41
SWIDTH 361 0
DWIDTH 3 0
BBX 4 9 -1 -2
BITMAP
08
0D
0A
0A
0D
1C
74
E0
40
ENDCHAR
STARTCHAR asterisk
ENCODING 42
SWIDTH 673 0
DWIDTH 5 0
BBX 6 4 0 2
BITMAP
0940
1F80
6F90
1A40
ENDCHAR
STARTCHAR plus
ENCODING 43
SWIDTH 579 0
DWIDTH 5 0
BBX 4 4 0 0
BITMAP
1C
6E
79
24
ENDCHAR
STARTCHAR comma
ENCODING 44
SWIDTH 204 0
DWIDTH 2 0
BBX 2 3 -1 -2
BITMAP
70
A0
40
ENDCHAR
STARTCHAR hyphen
ENCODING 45
SWIDTH 609 0
DWIDTH 5 0
BBX 4 2 0 1
BITMAP
6A
55
ENDCHAR
STARTCHAR period
ENCODING 46
SWIDTH 228 0
DWIDTH 2 0
BBX 1 1 0 0
BITMAP
C0
ENDCHAR
STARTCHAR slash
ENCODING 47
SWIDTH 401 0
DWIDTH 3 0
BBX 5 6 -1 0
BITMAP
0040
0280
0600
1C00
3400
6000
ENDCHAR
STARTCHAR zero
ENCODING 48
SWIDTH 686 0
DWIDTH 6 0
BBX 5 6 0 0
BITMAP
0700
1F40
7A80
A1C0
E6C0
BF40
ENDCHAR
STARTCHAR one
ENCODING 49
SWIDTH 322 0
DWIDTH 3 0
BBX 2 6 0 0
BITMAP
60
70
30
70
A0
90
ENDCHAR
STARTCHAR two
ENCODING 50
SWIDTH 650 0
DWIDTH 5 0
BBX 6 6 0 0
BITMAP
6A00
6B80
0B40
2D00
7A90
7E90
ENDCHAR
STARTCHAR three
ENCODING 51
SWIDTH 561 0
DWIDTH 5 0
BBX 5 6 0 0
BITMAP
6A00
FF40
3D00
2F00
5B00
B900
ENDCHAR
STARTCHAR four
ENCODING 52
SWIDTH 582 0
DWIDTH 5 0
BBX 5 6 0 0
BITMAP
0200
9600
6B40
2E00
0C00
0D00
ENDCHAR
STARTCHAR five
ENCODING 53
SWIDTH 580 0
DWIDTH 5 0
BBX 5 6 0 0
BITMAP
1940
7FC0
B900
2D00
5B00
7D00
ENDCHAR
STARTCHAR six
ENCODING 54
SWIDTH 500 0
DWIDTH 4 0
BBX 4 6 0 0
BITMAP
18
38
70
AD
FE
F8
ENDCHAR
STARTCHAR seven
ENCODING 55
SWIDTH 576 0
DWIDTH 5 0
BBX 5 6 0 0
BITMAP
A900
AF00
0740
7F80
2C00
2400
ENDCHAR
STARTCHAR eight
ENCODING 56
SWIDTH 537 0
DWIDTH 4 0
BBX 5 6 0 0
BITMAP
2940
7A80
7B40
3C00
6D00
3C00
ENDCHAR
STARTCHAR nine
ENCODING 57
SWIDTH 529 0
DWIDTH 4 0
BBX 5 6 0 0
BITMAP
1900
7B00
BF40
1A00
0900
0900
ENDCHAR
STARTCHAR colon
ENCODING 58
SWIDTH 241 0
DWIDTH 2 0
BBX 2 4 0 0
BITMAP
40
90
00
C0
ENDCHAR
STARTCHAR semicolon
ENCODING 59
SWIDTH 245 0
DWIDTH 2 0
BBX 3 5 -1 -1
BITMAP
14
24
00
30
70
ENDCHAR
STARTCHAR less
ENCODING 60
SWIDTH 625 0
DWIDTH 5 0
BBX 5 4 0 0
BITMAP
0280
6E40
B900
0600
ENDCHAR
STARTCHAR equal
ENCODING 61
SWIDTH 586 0
DWIDTH 5 0
BBX 4 3 0 1
BITMAP
5A
65
BE
ENDCHAR
STARTCHAR greater
ENCODING 62
SWIDTH 634 0
DWIDTH 5 0
BBX 6 4 -1 0
BITMAP
1900
07D0
1B90
6400
ENDCHAR
STARTCHAR question
ENCODING 63
SWIDTH 556 0
DWIDTH 4 0
BBX 5 6 0 0
BITMAP
2E40
2BC0
0B40
2800
1000
A000
ENDCHAR
STARTCHAR at
ENCODING 64
SWIDTH 732 0
DWIDTH 6 0
BBX 6 6 0 0
BITMAP
0740
1D80
76A0
EE60
DA80
7A80
ENDCHAR
STARTCHAR A
ENCODING 65
SWIDTH 702 0
DWIDTH 6 0
BBX 6 6 0 0
BITMAP
0600
1F40
3B40
7BD0
EAC0
D280
ENDCHAR
STARTCHAR B
ENCODING 66
SWIDTH 686 0
DWIDTH 6 0
BBX 5 6 0 0
BITMAP
6A40
F7C0
2F40
3A80
76C0
BE40
ENDCHAR
STARTCHAR C
ENCODING 67
SWIDTH 611 0
DWIDTH 5 0
BBX 5 6 0 0
BITMAP
0240
2F40
B800
D000
A500
2F40
ENDCHAR
STARTCHAR D
ENCODING 68
SWIDTH 588 0
DWIDTH 5 0
BBX 5 6 0 0
BITMAP
5000
7D00
6240
6280
BE00
A400
ENDCHAR
STARTCHAR E
ENCODING 69
SWIDTH 626 0
DWIDTH 5 0
BBX 5 6 0 0
BITMAP
1680
7E40
7A00
BA00
E540
BF40
ENDCHAR
STARTCHAR F
ENCODING 70
SWIDTH 575 0
DWIDTH 5 0
BBX 6 6 0 0
BITMAP
16D0
7E50
3400
FF40
A400
9000
ENDCHAR
STARTCHAR G
ENCODING 71
SWIDTH 789 0
DWIDTH 6 0
BBX 7 6 0 0
BITMAP
0280
0F80
3D40
B0F4
E6F4
7E40
ENDCHAR
STARTCHAR H
ENCODING 72
SWIDTH 695 0
DWIDTH 6 0
BBX 6 6 0 0
BITMAP
1080
70D0
70D0
BBD0
FAC0
E280
ENDCHAR
STARTCHAR I
ENCODING 73
SWIDTH 515 0
DWIDTH 4 0
BBX 6 6 -1 0
BITMAP
0AA0
0B90
0340
0700
1A00
7E40
ENDCHAR
STARTCHAR J
ENCODING 74
SWIDTH 668 0
DWIDTH 5 0
BBX 7 6 0 0
BITMAP
1AA0
7BA4
0340
0700
5A00
BD00
ENDCHAR
STARTCHAR K
ENCODING 75
SWIDTH 776 0
DWIDTH 6 0
BBX 7 6 0 0
BITMAP
1810
39F0
7F80
BE00
BBE4
A060
ENDCHAR
STARTCHAR L
ENCODING 76
SWIDTH 632 0
DWIDTH 5 0
BBX 5 6 0 0
BITMAP
2400
3800
7400
A000
EA40
BE80
ENDCHAR
STARTCHAR M
ENCODING 77
SWIDTH 973 0
DWIDTH 8 0
BBX 8 6 0 0
BITMAP
0908
2E2E
3FBE
BBDD
E01D
9008
ENDCHAR
STARTCHAR N
ENCODING 78
SWIDTH 684 0
DWIDTH 5 0
BBX 6 6 0 0
BITMAP
1450
2CE0
7CD0
BEC0
EF80
9600
ENDCHAR
STARTCHAR O
ENCODING 79
SWIDTH 744 0
DWIDTH 6 0
BBX 6 6 0 0
BITMAP
0240
1F80
39C0
A0A0
E6E0
7F40
ENDCHAR
STARTCHAR P
ENCODING 80
SWIDTH 639 0
DWIDTH 5 0
BBX 6 6 0 0
BITMAP
0A80
2ED0
7AD0
BF40
B000
A000
ENDCHAR
STARTCHAR Q
ENCODING 81
SWIDTH 744 0
DWIDTH 6 0
BBX 6 7 0 -1
BITMAP
0240
0BC0
3DA0
A6A0
D7D0
BED0
0040
ENDCHAR
STARTCHAR R
ENCODING 82
SWIDTH 646 0
DWIDTH 5 0
BBX 5 7 0 -1
BITMAP
0A00
2F40
7780
BE40
BD00
9BC0
0040
ENDCHAR
STARTCHAR S
ENCODING 83
SWIDTH 576 0
DWIDTH 5 0
BBX 6 6 0 0
BITMAP
1A80
BA90
BD00
0700
1A00
B800
ENDCHAR
STARTCHAR T
ENCODING 84
SWIDTH 607 0
DWIDTH 5 0
BBX 6 6 0 0
BITMAP
5AA0
BE90
0D00
2800
2400
2400
ENDCHAR
STARTCHAR U
ENCODING 85
SWIDTH 695 0
DWIDTH 6 0
BBX 6 6 0 0
BITMAP
0050
60A0
B0E0
A2D0
7F40
3900
ENDCHAR
STARTCHAR V
ENCODING 86
SWIDTH 583 0
DWIDTH 5 0
BBX 5 6 0 0
BITMAP
5080
62C0
7740
7E00
3C00
2400
ENDCHAR
STARTCHAR W
ENCODING 87
SWIDTH 994 0
DWIDTH 8 0
BBX 9 6 0 0
BITMAP
100200
34D740
72DB00
A7DD00
BEFC00
787400
ENDCHAR
STARTCHAR X
ENCODING 88
SWIDTH 623 0
DWIDTH 5 0
BBX 6 6 0 0
BITMAP
5040
7AD0
2F40
7E00
E740
C240
ENDCHAR
STARTCHAR Y
ENCODING 89
SWIDTH 493 0
DWIDTH 4 0
BBX 5 6 0 0
BITMAP
5280
7740
7E00
3C00
7400
A000
ENDCHAR
STARTCHAR Z
ENCODING 90
SWIDTH 664 0
DWIDTH 5 0
BBX 6 7 0 -1
BITMAP
2A90
1BD0
0B40
7D00
F680
FE40
1000
ENDCHAR
STARTCHAR bracketleft
ENCODING 91
SWIDTH 387 0
DWIDTH 3 0
BBX 7 10 -1 -2
BITMAP
0050
07F4
0A00
0900
0C00
1C00
2800
3400
7F40
1000
ENDCHAR
STARTCHAR backslash
ENCODING 92
SWIDTH 352 0
DWIDTH 3 0
BBX 3 6 0 0
BITMAP
50
60
60
30
30
24
ENDCHAR
STARTCHAR bracketright
ENCODING 93
SWIDTH 403 0
DWIDTH 3 0
BBX 6 10 -2 -2
BITMAP
0140
1FD0
00C0
01C0
0280
0340
0700
0A00
FD00
4000
ENDCHAR
STARTCHAR asciicircum
ENCODING 94
SWIDTH 518 0
DWIDTH 4 0
BBX 4 5 0 1
BITMAP
08
1D
3A
A6
41
ENDCHAR
STARTCHAR underscore
ENCODING 95
SWIDTH 708 0
DWIDTH 6 0
BBX 7 2 -1 -1
BITMAP
BFF4
1000
ENDCHAR
STARTCHAR grave
ENCODING 96
SWIDTH 754 0
DWIDTH 6 0
BBX 3 3 2 3
BITMAP
60
74
04
ENDCHAR
STARTCHAR a
ENCODING 97
SWIDTH 581 0
DWIDTH 5 0
BBX 5 5 0 0
BITMAP
0900
2E00
7A00
BF40
C700
ENDCHAR
STARTCHAR b
ENCODING 98
SWIDTH 573 0
DWIDTH 5 0
BBX 5 5 0 0
BITMAP
6A00
AB00
3E00
6740
BE00
ENDCHAR
STARTCHAR c
ENCODING 99
SWIDTH 513 0
DWIDTH 4 0
BBX 4 5 0 0
BITMAP
06
7D
E0
D0
7E
ENDCHAR
STARTCHAR d
ENCODING 100
SWIDTH 497 0
DWIDTH 4 0
BBX 4 5 0 0
BITMAP
50
A9
52
AD
A4
ENDCHAR
STARTCHAR e
ENCODING 101
SWIDTH 521 0
DWIDTH 4 0
BBX 5 5 0 0
BITMAP
1A40
7900
7D00
E500
BE00
ENDCHAR
STARTCHAR f
ENCODING 102
SWIDTH 455 0
DWIDTH 4 0
BBX 5 5 0 0
BITMAP
1A40
B500
B500
E900
8000
ENDCHAR
STARTCHAR g
ENCODING 103
SWIDTH 652 0
DWIDTH 5 0
BBX 6 5 0 0
BITMAP
0600
2E00
B640
D6D0
BE40
ENDCHAR
STARTCHAR h
ENCODING 104
SWIDTH 582 0
DWIDTH 5 0
BBX 5 5 0 0
BITMAP
1100
6240
A740
BF00
D700
ENDCHAR
STARTCHAR i
ENCODING 105
SWIDTH 320 0
DWIDTH 3 0
BBX 2 5 0 0
BITMAP
20
30
60
A0
60
ENDCHAR
STARTCHAR j
ENCODING 106
SWIDTH 534 0
DWIDTH 4 0
BBX 5 5 0 0
BITMAP
6A80
6A40
0A00
4D00
F800
ENDCHAR
STARTCHAR k
ENCODING 107
SWIDTH 645 0
DWIDTH 5 0
BBX 5 5 0 0
BITMAP
2440
3B80
7D00
BE40
9280
ENDCHAR
STARTCHAR l
ENCODING 108
SWIDTH 533 0
DWIDTH 4 0
BBX 4 5 0 0
BITMAP
20
70
A0
D4
BE
ENDCHAR
STARTCHAR m
ENCODING 109
SWIDTH 814 0
DWIDTH 7 0
BBX 7 5 0 0
BITMAP
1820
3CB4
7FF4
A530
C020
ENDCHAR
STARTCHAR n
ENCODING 110
SWIDTH 564 0
DWIDTH 5 0
BBX 5 5 0 0
BITMAP
1540
3A80
B740
FF00
8900
ENDCHAR
STARTCHAR o
ENCODING 111
SWIDTH 628 0
DWIDTH 5 0
BBX 5 5 0 0
BITMAP
0600
2F00
7240
D280
BE40
ENDCHAR
STARTCHAR p
ENCODING 112
SWIDTH 524 0
DWIDTH 4 0
BBX 5 5 0 0
BITMAP
1A00
3B40
BF40
A400
9000
ENDCHAR
STARTCHAR q
ENCODING 113
SWIDTH 625 0
DWIDTH 5 0
BBX 5 6 0 -1
BITMAP
0A00
1F40
B580
DB80
BF40
0100
ENDCHAR
STARTCHAR r
ENCODING 114
SWIDTH 541 0
DWIDTH 4 0
BBX 5 6 0 -1
BITMAP
0800
7A00
BA00
B800
AF40
0100
ENDCHAR
STARTCHAR s
ENCODING 115
SWIDTH 463 0
DWIDTH 4 0
BBX 5 5 0 0
BITMAP
1A40
B940
6C00
0900
B800
ENDCHAR
STARTCHAR t
ENCODING 116
SWIDTH 479 0
DWIDTH 4 0
BBX 5 5 0 0
BITMAP
6A80
AD40
2800
3000
3000
ENDCHAR
STARTCHAR u
ENCODING 117
SWIDTH 584 0
DWIDTH 5 0
BBX 5 5 0 0
BITMAP
0040
6180
A280
AB00
7800
ENDCHAR
STARTCHAR v
ENCODING 118
SWIDTH 485 0
DWIDTH 4 0
BBX 5 5 0 0
BITMAP
5140
6740
6D00
7800
3400
ENDCHAR
STARTCHAR w
ENCODING 119
SWIDTH 825 0
DWIDTH 7 0
BBX 7 5 0 0
BITMAP
1008
725C
A764
AFB0
75D0
ENDCHAR
STARTCHAR x
ENCODING 120
SWIDTH 506 0
DWIDTH 4 0
BBX 5 5 0 0
BITMAP
5140
7B40
3C00
AD00
C600
ENDCHAR
STARTCHAR y
ENCODING 121
SWIDTH 400 0
DWIDTH 3 0
BBX 4 5 0 0
BITMAP
56
6E
78
70
A0
ENDCHAR
STARTCHAR z
ENCODING 122
SWIDTH 547 0
DWIDTH 4 0
BBX 5 6 0 -1
BITMAP
2A40
1B40
2D00
E500
FE00
1000
ENDCHAR
STARTCHAR braceleft
ENCODING 123
SWIDTH 448 0
DWIDTH 4 0
BBX 7 10 0 -2
BITMAP
0040
0BF4
0900
1C00
B400
7400
3400
7000
7F00
1000
ENDCHAR
STARTCHAR bar
ENCODING 124
SWIDTH 332 0
DWIDTH 3 0
BBX 3 6 0 0
BITMAP
14
28
30
60
90
C0
ENDCHAR
STARTCHAR braceright
ENCODING 125
SWIDTH 481 0
DWIDTH 4 0
BBX 7 10 -3 -2
BITMAP
0040
07F0
0030
0060
00B4
0078
01D0
0280
7F40
1000
ENDCHAR
STARTCHAR asciitilde
ENCODING 126
SWIDTH 581 0
DWIDTH 5 0
BBX 5 2 0 1
BITMAP
BF40
4400
ENDCHAR
STARTCHAR uni00A0
ENCODING 160
SWIDTH 370 0
DWIDTH 3 0
BBX 1 1 0 0
BITMAP
00
ENDCHAR
STARTCHAR exclamdown
ENCODING 161
SWIDTH 260 0
DWIDTH 2 0
BBX 2 6 0 0
BITMAP
20
10
50
90
D0
C0
ENDCHAR
STARTCHAR cent
ENCODING 162
SWIDTH 488 0
DWIDTH 4 0
BBX 4 6 0 0
BITMAP
08
1E
78
C0
79
70
ENDCHAR
STARTCHAR sterling
ENCODING 163
SWIDTH 586 0
DWIDTH 5 0
BBX 5 5 0 0
BITMAP
1F80
6900
B900
BB00
5500
ENDCHAR
STARTCHAR currency
ENCODING 164
SWIDTH 509 0
DWIDTH 4 0
BBX 4 4 0 0
BITMAP
7E
AD
BD
84
ENDCHAR
STARTCHAR yen
ENCODING 165
SWIDTH 563 0
DWIDTH 5 0
BBX 5 5 0 0
BITMAP
3240
3A00
BE00
7900
3000
ENDCHAR
STARTCHAR brokenbar
ENCODING 166
SWIDTH 301 0
DWIDTH 2 0
BBX 3 6 0 0
BITMAP
14
24
20
00
90
C0
ENDCHAR
STARTCHAR section
ENCODING 167
SWIDTH 630 0
DWIDTH 5 0
BBX 5 8 0 -1
BITMAP
0100
3F80
7900
7F40
B780
2F00
5B40
6900
ENDCHAR
STARTCHAR dieresis
ENCODING 168
SWIDTH 754 0
DWIDTH 6 0
BBX 3 2 2 4
BITMAP
88
44
ENDCHAR
STARTCHAR copyright
ENCODING 169
SWIDTH 614 0
DWIDTH 5 0
BBX 5 5 0 1
BITMAP
1900
6680
A480
9980
6A00
ENDCHAR
STARTCHAR ordfeminine
ENCODING 170
SWIDTH 454 0
DWIDTH 4 0
BBX 4 4 0 1
BITMAP
28
7D
ED
44
ENDCHAR
STARTCHAR guillemotleft
ENCODING 171
SWIDTH 566 0
DWIDTH 5 0
BBX 4 3 0 0
BITMAP
77
DD
66
ENDCHAR
STARTCHAR logicalnot
ENCODING 172
SWIDTH 698 0
DWIDTH 6 0
BBX 5 3 0 0
BITMAP
AA40
56C0
0240
ENDCHAR
STARTCHAR sfthyphen
ENCODING 173
SWIDTH 608 0
DWIDTH 5 0
BBX 4 2 0 1
BITMAP
6A
55
ENDCHAR
STARTCHAR registered
ENCODING 174
SWIDTH 624 0
DWIDTH 5 0
BBX 5 5 0 1
BITMAP
1A00
2680
9E80
A980
6600
ENDCHAR
STARTCHAR macron
ENCODING 175
SWIDTH 754 0
DWIDTH 6 0
BBX 3 2 2 4
BITMAP
B8
40
ENDCHAR
STARTCHAR degree
ENCODING 176
SWIDTH 284 0
DWIDTH 2 0
BBX 3 3 0 4
BITMAP
04
28
78
ENDCHAR
STARTCHAR plusminus
ENCODING 177
SWIDTH 559 0
DWIDTH 4 0
BBX 5 6 0 0
BITMAP
0400
0D00
7F40
2800
1400
FE00
ENDCHAR
STARTCHAR twosuperior
ENCODING 178
SWIDTH 386 0
DWIDTH 3 0
BBX 4 4 0 2
BITMAP
64
38
7D
10
ENDCHAR
STARTCHAR threesuperior
ENCODING 179
SWIDTH 366 0
DWIDTH 3 0
BBX 3 3 0 3
BITMAP
68
3C
2C
ENDCHAR
STARTCHAR acute
ENCODING 180
SWIDTH 754 0
DWIDTH 6 0
BBX 3 3 2 3
BITMAP
24
74
40
ENDCHAR
STARTCHAR mu
ENCODING 181
SWIDTH 569 0
DWIDTH 5 0
BBX 5 5 0 -1
BITMAP
5140
A240
AA00
F800
8000
ENDCHAR
STARTCHAR paragraph
ENCODING 182
SWIDTH 729 0
DWIDTH 6 0
BBX 6 6 0 0
BITMAP
1AF0
7BA0
7A90
1FD0
0AC0
0DC0
ENDCHAR
STARTCHAR periodcentered
ENCODING 183
SWIDTH 226 0
DWIDTH 2 0
BBX 2 2 0 2
BITMAP
50
50
ENDCHAR
STARTCHAR cedilla
ENCODING 184
SWIDTH 754 0
DWIDTH 6 0
BBX 3 4 2 -3
BITMAP
10
74
68
50
ENDCHAR
STARTCHAR onesuperior
ENCODING 185
SWIDTH 206 0
DWIDTH 2 0
BBX 2 3 0 3
BITMAP
10
60
60
ENDCHAR
STARTCHAR ordmasculine
ENCODING 186
SWIDTH 445 0
DWIDTH 4 0
BBX 4 4 0 1
BITMAP
2C
AD
FD
10
ENDCHAR
STARTCHAR guillemotright
ENCODING 187
SWIDTH 595 0
DWIDTH 5 0
BBX 5 4 0 0
BITMAP
4400
A600
7740
9900
ENDCHAR
STARTCHAR onequarter
ENCODING 188
SWIDTH 705 0
DWIDTH 6 0
BBX 6 6 0 0
BITMAP
5140
6340
6D00
2980
63D0
9140
ENDCHAR
STARTCHAR onehalf
ENCODING 189
SWIDTH 750 0
DWIDTH 6 0
BBX 6 6 0 0
BITMAP
5140
6340
6D00
2B80
6280
93D0
ENDCHAR
STARTCHAR threequarters
ENCODING 190
SWIDTH 818 0
DWIDTH 7 0
BBX 6 6 0 0
BITMAP
6810
38D0
7A40
0A60
25F0
6090
ENDCHAR
STARTCHAR questiondown
ENCODING 191
SWIDTH 556 0
DWIDTH 4 0
BBX 5 7 -1 -1
BITMAP
0080
0080
0240
1E00
7940
7F80
0500
ENDCHAR
STARTCHAR Agrave
ENCODING 192
SWIDTH 702 0
DWIDTH 6 0
BBX 6 8 0 0
BITMAP
0600
0740
0640
1F40
3B40
7BD0
EAC0
D280
ENDCHAR
STARTCHAR Aacute
ENCODING 193
SWIDTH 702 0
DWIDTH 6 0
BBX 6 9 0 0
BITMAP
0180
0740
0400
0600
1F40
3B40
7BD0
EAC0
D280
ENDCHAR
STARTCHAR Acircumflex
ENCODING 194
SWIDTH 702 0
DWIDTH 6 0
BBX 6 8 0 0
BITMAP
0B80
0880
0600
1F40
3B40
7BD0
EAC0
D280
ENDCHAR
STARTCHAR Atilde
ENCODING 195
SWIDTH 702 0
DWIDTH 6 0
BBX 6 8 0 0
BITMAP
0BA0
0580
0600
1F40
3B40
7BD0
EAC0
D280
ENDCHAR
STARTCHAR Adieresis
ENCODING 196
SWIDTH 702 0
DWIDTH 6 0
BBX 6 8 0 0
BITMAP
0880
0440
0600
1F40
3B40
7BD0
EAC0
D280
ENDCHAR
STARTCHAR Aring
ENCODING 197
SWIDTH 702 0
DWIDTH 6 0
BBX 6 8 0 0
BITMAP
0140
0780
0740
1F40
3B40
7BD0
EAC0
D280
ENDCHAR
STARTCHAR AE
ENCODING 198
SWIDTH 1153 0
DWIDTH 9 0
BBX 11 6 -1 0
BITMAP
0091A4
07EFA0
0EEE80
2EFE90
3AF950
60EFE0
ENDCHAR
STARTCHAR Ccedilla
ENCODING 199
SWIDTH 611 0
DWIDTH 5 0
BBX 5 9 0 -3
BITMAP
0240
2F40
B800
D000
A500
2F40
2400
1D00
2400
ENDCHAR
STARTCHAR Egrave
ENCODING 200
SWIDTH 626 0
DWIDTH 5 0
BBX 5 9 0 0
BITMAP
0900
0700
0100
1680
7E40
7A00
BA00
E540
BF40
ENDCHAR
STARTCHAR Eacute
ENCODING 201
SWIDTH 626 0
DWIDTH 5 0
BBX 5 9 0 0
BITMAP
0240
0740
0400
1680
7E40
7A00
BA00
E540
BF40
ENDCHAR
STARTCHAR Ecircumflex
ENCODING 202
SWIDTH 626 0
DWIDTH 5 0
BBX 5 8 0 0
BITMAP
0B40
1980
1680
7E40
7A00
BA00
E540
BF40
ENDCHAR
STARTCHAR Edieresis
ENCODING 203
SWIDTH 626 0
DWIDTH 5 0
BBX 5 8 0 0
BITMAP
1880
0440
1680
7E40
7A00
BA00
E540
BF40
ENDCHAR
STARTCHAR Igrave
ENCODING 204
SWIDTH 515 0
DWIDTH 4 0
BBX 6 9 -1 0
BITMAP
0200
0280
0040
0AA0
0B90
0340
0700
1A00
7E40
ENDCHAR
STARTCHAR Iacute
ENCODING 205
SWIDTH 515 0
DWIDTH 4 0
BBX 6 9 -1 0
BITMAP
0060
00D0
0040
0AA0
0B90
0340
0700
1A00
7E40
ENDCHAR
STARTCHAR Icircumflex
ENCODING 206
SWIDTH 515 0
DWIDTH 4 0
BBX 6 8 -1 0
BITMAP
02D0
0220
0AA0
0B90
0340
0700
1A00
7E40
ENDCHAR
STARTCHAR Idieresis
ENCODING 207
SWIDTH 515 0
DWIDTH 4 0
BBX 6 8 -1 0
BITMAP
0220
0110
0AA0
0B90
0340
0700
1A00
7E40
ENDCHAR
STARTCHAR Eth
ENCODING 208
SWIDTH 656 0
DWIDTH 5 0
BBX 5 6 0 0
BITMAP
2400
3E00
7580
B9C0
7F40
7800
ENDCHAR
STARTCHAR Ntilde
ENCODING 209
SWIDTH 684 0
DWIDTH 5 0
BBX 6 8 0 0
BITMAP
07A0
0590
1450
2CE0
7CD0
BEC0
EF80
9600
ENDCHAR
STARTCHAR Ograve
ENCODING 210
SWIDTH 744 0
DWIDTH 6 0
BBX 6 8 0 0
BITMAP
0240
01C0
0280
1F80
39C0
A0A0
E6E0
7F40
ENDCHAR
STARTCHAR Oacute
ENCODING 211
SWIDTH 744 0
DWIDTH 6 0
BBX 6 9 0 0
BITMAP
0180
0740
0400
0240
1F80
39C0
A0A0
E6E0
7F40
ENDCHAR
STARTCHAR Ocircumflex
ENCODING 212
SWIDTH 744 0
DWIDTH 6 0
BBX 6 8 0 0
BITMAP
0780
0950
0240
1F80
39C0
A0A0
E6E0
7F40
ENDCHAR
STARTCHAR Otilde
ENCODING 213
SWIDTH 744 0
DWIDTH 6 0
BBX 6 8 0 0
BITMAP
07A0
0590
0240
1F80
39C0
A0A0
E6E0
7F40
ENDCHAR
STARTCHAR Odieresis
ENCODING 214
SWIDTH 744 0
DWIDTH 6 0
BBX 6 8 0 0
BITMAP
0990
0440
0240
1F80
39C0
A0A0
E6E0
7F40
ENDCHAR
STARTCHAR multiply
ENCODING 215
SWIDTH 490 0
DWIDTH 4 0
BBX 4 4 0 0
BITMAP
66
38
A8
88
ENDCHAR
STARTCHAR Oslash
ENCODING 216
SWIDTH 744 0
DWIDTH 6 0
BBX 6 7 0 -1
BITMAP
0290
1FD0
3BC0
ABA0
EEE0
7F40
3000
ENDCHAR
STARTCHAR Ugrave
ENCODING 217
SWIDTH 695 0
DWIDTH 6 0
BBX 6 8 0 0
BITMAP
1800
0A00
0150
60A0
B0E0
A2D0
7F40
3900
ENDCHAR
STARTCHAR Uacute
ENCODING 218
SWIDTH 695 0
DWIDTH 6 0
BBX 6 8 0 0
BITMAP
0180
0340
0150
60A0
B0E0
A2D0
7F40
3900
ENDCHAR
STARTCHAR Ucircumflex
ENCODING 219
SWIDTH 695 0
DWIDTH 6 0
BBX 6 8 0 0
BITMAP
0B40
0880
0050
60A0
B0E0
A2D0
7F40
3900
ENDCHAR
STARTCHAR Udieresis
ENCODING 220
SWIDTH 695 0
DWIDTH 6 0
BBX 6 8 0 0
BITMAP
0880
0440
0050
60A0
B0E0
A2D0
7F40
3900
ENDCHAR
STARTCHAR Yacute
ENCODING 221
SWIDTH 493 0
DWIDTH 4 0
BBX 5 9 0 0
BITMAP
0240
0B00
0400
5280
7740
7E00
3C00
7400
A000
ENDCHAR
STARTCHAR Thorn
ENCODING 222
SWIDTH 680 0
DWIDTH 5 0
BBX 6 6 0 0
BITMAP
2000
7A40
76D0
B7D0
B900
A000
ENDCHAR
STARTCHAR germandbls
ENCODING 223
SWIDTH 931 0
DWIDTH 7 0
BBX 8 5 0 0
BITMAP
1A5A
B9F5
6CA8
091C
B8B4
ENDCHAR
STARTCHAR agrave
ENCODING 224
SWIDTH 581 0
DWIDTH 5 0
BBX 5 8 0 0
BITMAP
0800
0B00
0100
0900
2E00
7A00
BF40
C700
ENDCHAR
STARTCHAR aacute
ENCODING 225
SWIDTH 581 0
DWIDTH 5 0
BBX 5 8 0 0
BITMAP
0600
0E00
0400
0900
2E00
7A00
BF40
C700
ENDCHAR
STARTCHAR acircumflex
ENCODING 226
SWIDTH 581 0
DWIDTH 5 0
BBX 5 7 0 0
BITMAP
1E00
2540
0900
2E00
7A00
BF40
C700
ENDCHAR
STARTCHAR atilde
ENCODING 227
SWIDTH 581 0
DWIDTH 5 0
BBX 5 7 0 0
BITMAP
1E80
1640
0900
2E00
7A00
BF40
C700
ENDCHAR
STARTCHAR adieresis
ENCODING 228
SWIDTH 581 0
DWIDTH 5 0
BBX 5 7 0 0
BITMAP
1580
1440
0900
2E00
7A00
BF40
C700
ENDCHAR
STARTCHAR aring
ENCODING 229
SWIDTH 581 0
DWIDTH 5 0
BBX 5 7 0 0
BITMAP
0100
0B00
0F00
2E00
7A00
BF40
C700
ENDCHAR
STARTCHAR ae
ENCODING 230
SWIDTH 948 0
DWIDTH 8 0
BBX 9 5 -1 0
BITMAP
015A40
0BB900
1EBE00
3FE500
62FF40
ENDCHAR
STARTCHAR ccedilla
ENCODING 231
SWIDTH 513 0
DWIDTH 4 0
BBX 4 8 0 -3
BITMAP
06
7D
E0
D0
7E
34
2C
10
ENDCHAR
STARTCHAR egrave
ENCODING 232
SWIDTH 521 0
DWIDTH 4 0
BBX 5 8 0 0
BITMAP
2400
1C00
0400
1A40
7900
7D00
E500
BE00
ENDCHAR
STARTCHAR eacute
ENCODING 233
SWIDTH 521 0
DWIDTH 4 0
BBX 5 8 0 0
BITMAP
0600
0D00
0400
1A40
7900
7D00
E500
BE00
ENDCHAR
STARTCHAR ecircumflex
ENCODING 234
SWIDTH 521 0
DWIDTH 4 0
BBX 5 7 0 0
BITMAP
1E00
1540
1A40
7900
7D00
E500
BE00
ENDCHAR
STARTCHAR edieresis
ENCODING 235
SWIDTH 521 0
DWIDTH 4 0
BBX 5 7 0 0
BITMAP
1580
1440
1A40
7900
7D00
E500
BE00
ENDCHAR
STARTCHAR igrave
ENCODING 236
SWIDTH 320 0
DWIDTH 3 0
BBX 3 8 0 0
BITMAP
60
28
04
20
30
60
A0
60
ENDCHAR
STARTCHAR iacute
ENCODING 237
SWIDTH 320 0
DWIDTH 3 0
BBX 4 8 0 0
BITMAP
02
0E
04
20
30
60
A0
60
ENDCHAR
STARTCHAR icircumflex
ENCODING 238
SWIDTH 320 0
DWIDTH 3 0
BBX 4 7 0 0
BITMAP
3C
55
20
30
60
A0
60
ENDCHAR
STARTCHAR idieresis
ENCODING 239
SWIDTH 320 0
DWIDTH 3 0
BBX 4 7 0 0
BITMAP
55
45
20
30
60
A0
60
ENDCHAR
STARTCHAR eth
ENCODING 240
SWIDTH 541 0
DWIDTH 4 0
BBX 4 5 0 0
BITMAP
24
69
F6
AA
74
ENDCHAR
STARTCHAR ntilde
ENCODING 241
SWIDTH 564 0
DWIDTH 5 0
BBX 6 7 0 0
BITMAP
0B90
0540
1540
3A80
B740
FF00
8900
ENDCHAR
STARTCHAR ograve
ENCODING 242
SWIDTH 628 0
DWIDTH 5 0
BBX 5 7 0 0
BITMAP
0900
0740
0600
2F00
7240
D280
BE40
ENDCHAR
STARTCHAR oacute
ENCODING 243
SWIDTH 628 0
DWIDTH 5 0
BBX 5 8 0 0
BITMAP
0200
0A00
0400
0600
2F00
7240
D280
BE40
ENDCHAR
STARTCHAR ocircumflex
ENCODING 244
SWIDTH 628 0
DWIDTH 5 0
BBX 5 7 0 0
BITMAP
0B40
0880
0600
2F00
7240
D280
BE40
ENDCHAR
STARTCHAR otilde
ENCODING 245
SWIDTH 628 0
DWIDTH 5 0
BBX 6 7 0 0
BITMAP
0B90
0540
0600
2F00
7240
D280
BE40
ENDCHAR
STARTCHAR odieresis
ENCODING 246
SWIDTH 628 0
DWIDTH 5 0
BBX 5 7 0 0
BITMAP
0880
0440
0600
2F00
7240
D280
BE40
ENDCHAR
STARTCHAR divide
ENCODING 247
SWIDTH 559 0
DWIDTH 4 0
BBX 4 5 0 0
BITMAP
08
08
AE
54
24
ENDCHAR
STARTCHAR oslash
ENCODING 248
SWIDTH 632 0
DWIDTH 5 0
BBX 5 6 0 -1
BITMAP
0680
2F40
7B40
EE80
BE40
6000
ENDCHAR
STARTCHAR ugrave
ENCODING 249
SWIDTH 584 0
DWIDTH 5 0
BBX 5 8 0 0
BITMAP
1800
0A00
0100
0040
6180
A280
AB00
7800
ENDCHAR
STARTCHAR uacute
ENCODING 250
SWIDTH 584 0
DWIDTH 5 0
BBX 5 7 0 0
BITMAP
0240
0B00
0440
6180
A280
AB00
7800
ENDCHAR
STARTCHAR ucircumflex
ENCODING 251
SWIDTH 584 0
DWIDTH 5 0
BBX 5 7 0 0
BITMAP
0F00
1540
0040
6180
A280
AB00
7800
ENDCHAR
STARTCHAR udieresis
ENCODING 252
SWIDTH 584 0
DWIDTH 5 0
BBX 5 7 0 0
BITMAP
1580
1440
0040
6180
A280
AB00
7800
ENDCHAR
STARTCHAR yacute
ENCODING 253
SWIDTH 400 0
DWIDTH 3 0
BBX 5 8 0 0
BITMAP
0240
0A00
0400
5600
6E00
7800
7000
A000
ENDCHAR
STARTCHAR thorn
ENCODING 254
SWIDTH 579 0
DWIDTH 5 0
BBX 5 5 0 0
BITMAP
2000
7F40
A780
BD00
9000
ENDCHAR
STARTCHAR ydieresis
ENCODING 255
SWIDTH 400 0
DWIDTH 3 0
BBX 5 7 0 0
BITMAP
2640
1100
5600
6E00
7800
7000
A000
ENDCHAR
STARTCHAR dotlessi
ENCODING 305
SWIDTH 320 0
DWIDTH 3 0
BBX 2 5 0 0
BITMAP
20
30
60
A0
60
ENDCHAR
STARTCHAR Lslash
ENCODING 321
SWIDTH 632 0
DWIDTH 5 0
BBX 6 6 -1 0
BITMAP
0900
0E00
2F00
B800
3A90
2FA0
ENDCHAR
STARTCHAR lslash
ENCODING 322
SWIDTH 533 0
DWIDTH 4 0
BBX 5 5 -1 0
BITMAP
0800
1D00
7D00
7500
2F80
ENDCHAR
STARTCHAR OE
ENCODING 338
SWIDTH 1212 0
DWIDTH 10 0
BBX 10 6 0 0
BITMAP
0246A0
1FAF90
39EE40
A0BE80
E6F580
7FBF80
ENDCHAR
STARTCHAR oe
ENCODING 339
SWIDTH 1010 0
DWIDTH 8 0
BBX 8 5 0 0
BITMAP
061A
2FB9
72FD
D2D4
BEFE
ENDCHAR
STARTCHAR Scaron
ENCODING 352
SWIDTH 576 0
DWIDTH 5 0
BBX 6 8 0 0
BITMAP
0D80
0600
1A80
BA90
BD00
0700
1A00
B800
ENDCHAR
STARTCHAR scaron
ENCODING 353
SWIDTH 463 0
DWIDTH 4 0
BBX 5 7 0 0
BITMAP
3700
1900
1A40
B940
6C00
0900
B800
ENDCHAR
STARTCHAR Ydieresis
ENCODING 376
SWIDTH 493 0
DWIDTH 4 0
BBX 5 8 0 0
BITMAP
1580
1440
5280
7740
7E00
3C00
7400
A000
ENDCHAR
STARTCHAR Zcaron
ENCODING 381
SWIDTH 664 0
DWIDTH 5 0
BBX 6 9 0 -1
BITMAP
06A0
0280
2A90
1BD0
0B40
7D00
F680
FE40
1000
ENDCHAR
STARTCHAR zcaron
ENCODING 382
SWIDTH 547 0
DWIDTH 4 0
BBX 5 9 0 -1
BITMAP
0D80
0600
0000
2A40
1B40
2D00
E500
FE00
1000
ENDCHAR
STARTCHAR circumflex
ENCODING 710
SWIDTH 754 0
DWIDTH 6 0
BBX 3 2 2 4
BITMAP
B8
88
ENDCHAR
STARTCHAR caron
ENCODING 711
SWIDTH 754 0
DWIDTH 6 0
BBX 3 2 2 4
BITMAP
DC
64
ENDCHAR
STARTCHAR breve
ENCODING 728
SWIDTH 754 0
DWIDTH 6 0
BBX 3 2 2 4
BITMAP
DC
64
ENDCHAR
STARTCHAR dotaccent
ENCODING 729
SWIDTH 754 0
DWIDTH 6 0
BBX 1 2 3 4
BITMAP
80
40
ENDCHAR
STARTCHAR ring
ENCODING 730
SWIDTH 754 0
DWIDTH 6 0
BBX 3 3 2 4
BITMAP
10
74
B4
ENDCHAR
STARTCHAR ogonek
ENCODING 731
SWIDTH 754 0
DWIDTH 6 0
BBX 4 2 2 -2
BITMAP
90
79
ENDCHAR
STARTCHAR tilde
ENCODING 732
SWIDTH 754 0
DWIDTH 6 0
BBX 5 2 1 4
BITMAP
3E40
5500
ENDCHAR
STARTCHAR hungarumlaut
ENCODING 733
SWIDTH 754 0
DWIDTH 6 0
BBX 5 3 1 3
BITMAP
2580
7B40
4400
ENDCHAR
STARTCHAR endash
ENCODING 8211
SWIDTH 588 0
DWIDTH 5 0
BBX 4 2 0 1
BITMAP
6A
55
ENDCHAR
STARTCHAR emdash
ENCODING 8212
SWIDTH 878 0
DWIDTH 7 0
BBX 7 2 0 1
BITMAP
AAA4
5550
ENDCHAR
STARTCHAR quoteleft
ENCODING 8216
SWIDTH 203 0
DWIDTH 2 0
BBX 3 3 0 3
BITMAP
34
70
10
ENDCHAR
STARTCHAR quoteright
ENCODING 8217
SWIDTH 199 0
DWIDTH 2 0
BBX 3 3 0 3
BITMAP
24
70
10
ENDCHAR
STARTCHAR quotesinglbase
ENCODING 8218
SWIDTH 204 0
DWIDTH 2 0
BBX 2 3 -1 -2
BITMAP
70
A0
40
ENDCHAR
STARTCHAR quotedblleft
ENCODING 8220
SWIDTH 410 0
DWIDTH 3 0
BBX 4 3 0 3
BITMAP
3B
7A
10
ENDCHAR
STARTCHAR quotedblright
ENCODING 8221
SWIDTH 425 0
DWIDTH 3 0
BBX 4 3 0 3
BITMAP
27
7B
14
ENDCHAR
STARTCHAR quotedblbase
ENCODING 8222
SWIDTH 430 0
DWIDTH 3 0
BBX 4 3 -1 -2
BITMAP
76
AD
44
ENDCHAR
STARTCHAR bullet
ENCODING 8226
SWIDTH 299 0
DWIDTH 2 0
BBX 2 2 0 1
BITMAP
A0
50
ENDCHAR
STARTCHAR ellipsis
ENCODING 8230
SWIDTH 768 0
DWIDTH 6 0
BBX 6 1 0 0
BITMAP
CD90
ENDCHAR
STARTCHAR perthousand
ENCODING 8240
SWIDTH 889 0
DWIDTH 7 0
BBX 7 6 0 0
BITMAP
1440
79C0
6A00
1904
67AC
9668
ENDCHAR
STARTCHAR guilsinglleft
ENCODING 8249
SWIDTH 322 0
DWIDTH 3 0
BBX 2 3 0 0
BITMAP
70
D0
60
ENDCHAR
STARTCHAR guilsinglright
ENCODING 8250
SWIDTH 341 0
DWIDTH 3 0
BBX 2 4 0 0
BITMAP
40
A0
70
80
ENDCHAR
STARTCHAR fraction
ENCODING 8260
SWIDTH 541 0
DWIDTH 4 0
BBX 5 6 0 0
BITMAP
0140
0700
0D00
2400
A000
C000
ENDCHAR
STARTCHAR Euro
ENCODING 8364
SWIDTH 565 0
DWIDTH 5 0
BBX 4 5 0 0
BITMAP
06
2E
B9
B9
2E
ENDCHAR
STARTCHAR Delta
ENCODING 8710
SWIDTH 403 0
DWIDTH 3 0
BBX 5 5 -1 0
BITMAP
1A80
0A40
0A00
0D00
7E00
ENDCHAR
STARTCHAR minus
ENCODING 8722
SWIDTH 548 0
DWIDTH 4 0
BBX 4 2 0 1
BITMAP
AA
55
ENDCHAR
STARTCHAR approxequal
ENCODING 8776
SWIDTH 323 0
DWIDTH 3 0
BBX 3 6 0 0
BITMAP
20
34
70
A0
A0
60
ENDCHAR
STARTCHAR fi
ENCODING 64257
SWIDTH 810 0
DWIDTH 6 0
BBX 6 5 0 0
BITMAP
1A60
B570
B560
E9A0
8060
ENDCHAR
STARTCHAR fl
ENCODING 64258
SWIDTH 1012 0
DWIDTH 8 0
BBX 8 5 0 0
BITMAP
1A60
B570
B5A0
E9D4
80FE
ENDCHAR
STARTCHAR .notdef
ENCODING -1
SWIDTH 370 0
DWIDTH 3 0
BBX 1 1 0 0
BITMAP
00
ENDCHAR
ENDFONT
